<svg width="128" height="100" viewBox="0 0 128 100" fill="none" xmlns="http://www.w3.org/2000/svg">
<path d="M85.1187 7.49542C84.5552 7.40206 83.9749 7.91658 84.0779 8.44235C84.2868 9.49527 84.9166 10.4282 85.1454 11.4755C85.3803 12.56 85.1546 13.6712 85.3665 14.7487C85.5023 15.4394 86.2945 15.7511 86.9312 15.3657C89.8426 13.6024 88.4975 8.04855 85.1187 7.49542Z" fill="white"/>
<path d="M84.0475 17.0295C83.8147 17.2715 83.5522 17.4878 83.2651 17.6739C82.986 17.869 82.7123 18.0887 82.3958 18.2312C81.7477 18.5218 81.9299 19.5397 82.726 19.4182C83.3193 19.327 83.8866 19.1374 84.3136 18.7345C84.7101 18.3583 84.9152 17.921 85.0487 17.4177C85.1852 16.8912 84.3715 16.6638 84.0475 17.0295Z" fill="white"/>
<path d="M15.6609 15.3522C14.7253 15.3381 14.0855 15.3325 13.4046 16.0169C12.7747 16.6487 12.6054 17.4335 12.7046 18.2695C12.7679 18.7995 13.6333 19.0866 13.9765 18.5938C14.2937 18.1375 14.7009 17.7304 15.044 17.2875C15.2316 17.0439 15.4436 16.8172 15.5572 16.5315C15.6571 16.2802 15.6899 16.0401 15.8691 15.8162C15.9934 15.6575 15.9118 15.3564 15.6609 15.3522Z" fill="white"/>
<path d="M115.437 39.2936C115.101 38.3108 114.232 37.0873 112.992 37.0438C112.346 37.0207 111.619 37.4713 111.765 38.1592C111.917 38.8612 112.451 39.3841 112.685 40.0608C112.904 40.684 113.053 41.3257 113.132 41.9764C113.208 42.7486 114.266 42.9163 114.769 42.3976C115.651 41.478 115.835 40.4518 115.437 39.2936Z" fill="white"/>
<path d="M114.57 44.746C114.441 44.1592 113.74 43.8201 113.177 44.1964C112.999 44.3216 112.848 44.4752 112.729 44.6498C112.674 44.7348 112.62 44.8211 112.566 44.9074L112.546 44.9411C112.502 45.005 112.456 45.0668 112.411 45.1299C112.218 45.4107 112.129 45.6915 111.822 45.9421C111.549 46.166 111.43 46.5037 111.624 46.8132C111.797 47.0884 112.196 47.2625 112.533 47.1158C113.027 46.9017 113.565 46.6665 113.936 46.2917C114.324 45.9007 114.689 45.29 114.57 44.746Z" fill="white"/>
<path d="M110.306 78.8586C108.748 82.1884 106.155 85.0198 102.854 86.9963C99.3238 89.0944 95.1269 90.0336 90.9413 89.7592C88.4482 89.5955 86.0126 88.9916 83.7675 87.9804C82.9744 87.6224 82.2966 88.6529 83.0682 89.0818C83.0092 89.0489 82.9608 89.0022 82.9279 88.9463C82.9413 88.9637 82.9533 88.982 82.9638 89.0011C82.9638 89.0011 82.9508 88.9491 82.9874 89.0713C83.0308 89.22 83.0634 89.3713 83.085 89.524C83.1436 90.0165 83.169 90.5119 83.1613 91.0072C83.1613 92.0672 83.1079 93.1299 82.9989 94.1857C82.8029 96.0809 81.6263 98.8522 78.9247 98.5623C76.8658 98.3412 74.3747 98.064 72.3151 97.3831C71.3581 97.0658 71.0035 96.1013 70.8236 95.2028C70.5666 93.921 70.6398 92.5986 70.5758 91.3028C70.5064 89.9101 70.1442 88.5652 69.7042 87.2315C69.1923 85.6708 68.5218 84.158 67.7018 82.713C66.134 79.9754 63.8404 77.308 60.8261 75.8199C59.4688 75.1509 57.9788 74.8463 56.4431 74.8505C54.7068 74.8547 52.9804 75.1193 51.2396 75.1312C47.4859 75.168 43.7444 74.7323 40.1189 73.8361C36.7973 73.0085 33.4712 71.7787 30.9518 69.5542C28.9379 67.7755 27.6478 65.4878 27.0476 62.9903C26.9033 62.3858 26.7956 61.7744 26.7251 61.1589C26.6313 60.351 25.245 60.3426 25.3396 61.1589C25.6507 63.839 26.523 66.4692 28.2738 68.6607C30.3402 71.2474 33.2844 72.9587 36.5091 74.098C40.1738 75.3931 44.1054 76.0698 48.0133 76.3161C49.9047 76.4418 51.8035 76.4418 53.6949 76.3161C55.3923 76.1975 57.0699 75.9532 58.739 76.3976C60.3731 76.8321 61.7892 77.833 62.9932 78.9134C64.3169 80.1067 65.3982 81.4958 66.2904 82.9847C67.8993 85.671 69.1239 88.801 69.2154 91.8882C69.2795 94.0755 69.037 97.5466 71.7318 98.5357C72.8938 98.9617 74.1718 99.1513 75.398 99.3485C76.5479 99.5357 77.7026 99.6955 78.8621 99.8279C81.8978 100.179 83.8719 97.5066 84.2761 95.0182C84.4377 94.0193 84.4949 93.0001 84.5285 91.9914C84.5628 90.9665 84.6185 89.861 84.3562 88.8544C84.2669 88.5111 84.1076 88.1707 83.766 87.9804L83.0667 89.0818C87.2898 90.9816 92.0765 91.5435 96.6824 90.6801C100.876 89.8904 104.734 87.8323 107.636 84.9438C109.249 83.3438 110.555 81.504 111.5 79.5023C111.85 78.7568 110.661 78.1068 110.304 78.8586H110.306Z" fill="white"/>
<path d="M57.3712 75.7246C64.9034 73.6834 72.7262 74.5313 80.3492 75.6306C83.8698 76.1395 87.4117 76.567 90.917 77.1622C94.2028 77.7196 97.4748 78.3555 100.794 78.7248C104.39 79.1256 108.133 79.2224 111.636 78.2481C112.487 78.0109 112.125 76.7797 111.268 77.0183C108.191 77.8747 104.929 77.8452 101.759 77.5483C98.418 77.2359 95.1247 76.5951 91.8321 76.0265C88.3641 75.4277 84.8626 75.0044 81.3786 74.4969C77.5934 73.9452 73.793 73.4152 69.9613 73.2404C65.5981 73.0411 61.2059 73.3563 57.0029 74.4948C56.1496 74.7265 56.5126 75.957 57.3712 75.7246Z" fill="white"/>
<path d="M65.6865 74.2406C65.9283 76.5149 67.6165 78.4635 70.0055 79.1283L69.5922 78.1912C67.8704 81.2798 69.516 85.0878 73.1349 86.1429C73.5523 86.2569 73.9809 86.3329 74.4144 86.3696C74.7919 86.4075 75.2128 86.4075 75.5277 86.63C75.8838 86.8813 76.1194 87.2948 76.4519 87.5791C77.224 88.2373 78.1684 88.7001 79.1927 88.9223C80.2171 89.1445 81.2865 89.1185 82.2967 88.8468C83.1499 88.6165 82.787 87.3853 81.9284 87.617C81.2613 87.7968 80.5594 87.8396 79.8724 87.7426C79.1853 87.6456 78.5297 87.411 77.9518 87.0554C77.3128 86.6651 76.9559 86.0558 76.3696 85.6262C75.7832 85.1966 75.0588 85.1735 74.3359 85.0878C71.1401 84.7088 69.3223 81.463 70.7878 78.8363C70.9945 78.4656 70.8191 78.0234 70.3738 77.8999C68.62 77.4085 67.252 75.9344 67.0721 74.242C66.9859 73.4327 65.5996 73.4242 65.6865 74.242V74.2406Z" fill="white"/>
<path d="M26.9474 59.8023C26.6866 55.5001 27.4491 50.3618 32.0166 48.1107C32.995 47.6284 34.0076 47.4438 35.1049 47.3806C35.6783 47.3476 36.2403 47.2845 36.7634 47.0507C37.3063 46.8092 37.7463 46.4112 38.1984 46.0525C39.815 44.7673 41.8151 43.9537 43.9075 43.5957C46.0061 43.2405 48.1683 43.3816 50.1915 44.0057C51.2827 44.344 52.1885 44.9435 53.2302 45.3646C54.3877 45.8321 55.3957 45.4755 56.2955 44.7392C58.1774 43.1998 60.0319 41.7327 62.3195 40.7156C64.4752 39.7589 66.871 39.2822 69.2585 39.509C70.5366 39.6242 71.7762 39.9764 72.9026 40.5443C74.0464 41.1305 75.085 42.1188 76.4224 41.2919C76.9615 40.9585 77.4183 40.4952 77.9124 40.1084C78.435 39.693 78.9889 39.3123 79.5701 38.9692C80.7216 38.3023 82.0278 37.8418 83.395 38.1416C83.4977 38.166 83.6052 38.1687 83.7092 38.1493C83.8132 38.13 83.9111 38.0892 83.9956 38.03C84.08 37.9708 84.1487 37.8948 84.1966 37.8076C84.2444 37.7204 84.2702 37.6243 84.2719 37.5267C84.3481 35.1302 86.3467 33.0503 88.8852 32.6053C89.7598 32.4516 89.3892 31.2224 88.5169 31.3755C85.3707 31.9272 82.9771 34.5981 82.8871 37.5267L83.7633 36.9124C81.1936 36.3509 78.8953 37.6846 77.0073 39.1489C76.578 39.4823 76.183 39.8964 75.7232 40.1913C75.1193 40.578 74.5794 40.0003 74.0731 39.6999C73.0675 39.1165 71.9604 38.6965 70.8003 38.4581C65.747 37.3989 60.8364 39.4816 57.0192 42.4284C56.5449 42.7948 56.0866 43.1766 55.6352 43.5662C55.2478 43.9004 54.7888 44.3686 54.207 44.3236C53.6251 44.2787 53.0716 43.8224 52.5759 43.5775C52.077 43.3339 51.562 43.1191 51.0341 42.9345C48.9348 42.1918 46.6114 41.9812 44.3894 42.2459C42.2132 42.5049 40.0842 43.2096 38.2892 44.3805C37.3299 45.0052 36.5354 45.995 35.3024 46.0947C34.109 46.1922 33.0308 46.2947 31.919 46.7433C29.6215 47.6712 27.822 49.523 26.8208 51.6162C25.5908 54.186 25.3964 57.0317 25.5649 59.8023C25.6145 60.618 27 60.6236 26.9496 59.8023H26.9474Z" fill="white"/>
<path d="M33.0123 56.6637C37.7682 60.7147 45.4239 61.3556 50.8661 58.0908L50.3323 58.1554C54.5217 58.7226 59.0419 58.6194 63.0909 57.3832C66.1662 56.4433 69.2956 54.6028 70.0543 51.5051L68.7885 51.6574C71.847 55.4711 77.8283 55.3686 82.4302 54.805C87.0595 54.2371 91.4829 52.6577 95.0546 49.8443C97.3727 48.0192 99.2263 45.7379 100.657 43.2663C101.075 42.5419 99.8798 41.8975 99.4604 42.6226C97.1881 46.5536 93.8269 49.7825 89.4218 51.6834C85.6564 53.3077 81.2787 53.9584 77.1382 53.7787C74.5456 53.6664 71.6122 53.0438 69.9849 51.0137C69.6593 50.6087 68.8617 50.582 68.7192 51.1661C68.2067 53.2586 66.3912 54.6505 64.3727 55.5462C61.9159 56.6357 59.0808 57.04 56.3815 57.1677C54.8581 57.2397 53.331 57.2024 51.8139 57.0561C51.4159 57.0175 51.0087 56.9312 50.6099 56.9157C50.2568 56.9017 50.038 57.0751 49.7482 57.2358C49.2354 57.5232 48.7002 57.7752 48.1469 57.9897C45.9669 58.8243 43.5313 59.0834 41.195 58.804C38.5261 58.4853 35.9716 57.4471 33.9952 55.7638C33.3417 55.2072 32.3596 56.1064 33.0153 56.6651L33.0123 56.6637Z" fill="white"/>
<path d="M38.395 61.2536C36.722 62.4925 36.3202 64.91 37.4472 66.5758C37.5424 66.7193 37.6943 66.8233 37.871 66.8659C38.0477 66.9086 38.2355 66.8866 38.395 66.8046C38.7115 66.634 38.8418 66.2255 38.6436 65.9321C38.5849 65.845 38.5284 65.7566 38.4789 65.6653C38.4591 65.6288 38.44 65.5951 38.4209 65.5544C38.4705 65.6513 38.4103 65.5292 38.4019 65.5095C38.3278 65.3272 38.2712 65.1393 38.2326 64.9479C38.2326 64.9479 38.2036 64.7774 38.2143 64.8511C38.225 64.9248 38.2059 64.7682 38.2044 64.7535C38.1952 64.651 38.1914 64.5485 38.1914 64.4468C38.1914 64.345 38.196 64.2621 38.2036 64.1702C38.2082 64.1189 38.2135 64.0677 38.2204 64.0172C38.2074 64.1105 38.2204 64.0172 38.2303 63.9736C38.267 63.7817 38.3202 63.5927 38.3897 63.4086C38.4042 63.37 38.4202 63.3321 38.4354 63.2935C38.5071 63.1124 38.4057 63.3482 38.456 63.2478C38.5063 63.1474 38.5513 63.0639 38.6085 62.9748C38.6657 62.8856 38.7099 62.8168 38.7656 62.7403C38.7656 62.7445 38.8685 62.6062 38.8274 62.6561C38.7862 62.7059 38.8876 62.5859 38.8975 62.5775C39.0428 62.4238 39.203 62.2828 39.3764 62.1563C39.6684 61.9401 39.6211 61.4796 39.3764 61.2543C39.0881 60.9889 38.6901 61.0381 38.3973 61.2543L38.395 61.2536Z" fill="white"/>
<path d="M52.0377 68.4322C52.8452 68.6751 53.5849 68.3585 54.3551 68.1563C55.3036 67.9086 56.1927 68.2967 57.0567 68.6428C58.8319 69.3539 60.5643 69.7561 62.5088 69.4985C64.4014 69.2472 65.9462 68.4133 67.3889 67.2944C68.0867 66.7518 68.7927 66.1621 69.6521 65.8455C70.4009 65.5697 71.2115 65.5325 72.006 65.6069C73.6836 65.7648 75.2719 66.3895 76.9205 66.6886C78.7285 67.0157 80.3389 66.8655 81.9814 66.0751C82.8911 65.6371 83.7566 65.1759 84.7921 65.0425C85.8085 64.9119 86.8509 65.0425 87.8422 65.2531C89.6197 65.6314 91.3087 66.3888 93.1174 66.6268C94.8918 66.8606 96.7089 66.7503 98.4635 66.438C100.168 66.1347 101.91 65.6097 103.332 64.6705C104.05 64.196 103.359 63.0897 102.633 63.5691C100.211 65.1689 96.7806 65.6665 93.8639 65.4328C92.1558 65.2924 90.5629 64.6031 88.922 64.1896C87.0156 63.7102 84.9461 63.4631 83.0627 64.158C82.1606 64.4915 81.3554 65.0193 80.4465 65.3338C79.6839 65.5963 78.8917 65.6441 78.0895 65.5725C76.4356 65.4244 74.8678 64.8172 73.2482 64.509C71.6149 64.1981 69.948 64.1974 68.458 64.9688C66.8666 65.7929 65.7342 67.1849 64.0094 67.8215C62.0383 68.5487 59.9596 68.4154 58.0327 67.6517C57.0864 67.2768 56.0677 66.7777 55.0116 66.7763C54.5541 66.7763 54.1019 66.8907 53.6695 67.0199C53.2631 67.1413 52.8361 67.3309 52.4098 67.2031C51.5604 66.9476 51.1967 68.1788 52.0415 68.4322H52.0377Z" fill="white"/>
<path d="M21.8253 34.559C25.4687 35.1795 28.2412 32.5549 30.2048 30.0981C31.2166 28.8282 32.1873 27.5009 33.5027 26.4774C34.847 25.4336 36.5566 24.9177 38.2891 24.7696C40.3349 24.5941 42.3945 24.8201 44.4221 25.0644C44.7957 25.1093 45.1083 24.7394 45.1144 24.427C45.119 24.0459 44.7911 23.8339 44.4221 23.7896C41.0075 23.3783 37.2688 23.0175 34.1089 24.5688C31.0161 26.0892 29.6748 29.1722 27.2858 31.363C25.9636 32.5753 24.1449 33.664 22.1952 33.3285C21.3236 33.1796 20.95 34.4088 21.8269 34.5576L21.8253 34.559Z" fill="white"/>
<path d="M46.3476 11.3199C48.0763 10.5983 50.1648 11.4055 50.7916 13.0551C51.4718 14.8437 50.0969 16.5291 49.066 17.9435C47.0651 20.6923 44.7066 23.5984 45.1161 27.1032C45.3113 28.7907 46.0891 30.309 47.5989 31.3205C48.3218 31.8035 49.0134 30.6979 48.2981 30.2199C46.9614 29.3256 46.4483 27.7631 46.4536 26.3016C46.4612 24.5411 47.2298 22.9421 48.1998 21.4581C50.039 18.6405 54.1925 14.9258 51.4451 11.5087C50.0931 9.82402 47.6782 9.37197 45.6499 10.2199C44.8386 10.5583 45.5424 11.6575 46.3484 11.3213L46.3476 11.3199Z" fill="white"/>
<path d="M61.4828 7.06177C63.4906 8.34423 64.7266 10.5385 64.7549 12.7813C64.7655 13.6011 66.1503 13.6032 66.1404 12.7813C66.1061 10.0661 64.5985 7.504 62.1813 5.96041C61.8763 5.76456 61.4127 5.90846 61.2343 6.18924C61.033 6.50652 61.1748 6.86452 61.4828 7.06177Z" fill="white"/>
<path d="M70.1206 10.826C66.9432 10.4932 64.2843 13.2828 63.3547 15.8098C63.1161 16.457 62.9697 17.1695 63.0429 17.8546C63.0795 18.1971 63.3349 18.492 63.7352 18.492C64.0814 18.492 64.465 18.1992 64.4276 17.8546C64.4103 17.6913 64.4052 17.5271 64.4124 17.3632C64.4124 17.2769 64.4238 17.1905 64.4337 17.1049C64.4505 16.9645 64.4246 17.1393 64.4497 17.0087C64.5166 16.655 64.6187 16.3077 64.7547 15.9713C65.0472 15.2672 65.459 14.6102 65.9748 14.0247C67.0225 12.8434 68.4621 11.9294 70.1138 12.1021C70.4859 12.1414 70.8069 11.7813 70.8069 11.4647C70.8069 11.0878 70.4874 10.866 70.1138 10.8274L70.1206 10.826Z" fill="white"/>
<path d="M63.3567 16.0385C60.9166 16.8619 59.1338 18.6876 58.1715 20.8819C57.0171 23.5142 57.2443 26.4814 57.9428 29.1874C58.1494 29.9855 59.4854 29.6472 59.2787 28.8483C58.6588 26.4477 58.4499 23.8743 59.384 21.5158C60.1236 19.6479 61.6647 17.9632 63.725 17.2683C64.5554 16.9875 64.1963 15.7556 63.3567 16.0392V16.0385Z" fill="white"/>
<path d="M18.6547 21.6358C19.004 19.8374 19.7421 18.1049 21.0369 16.7003C22.1944 15.4453 23.6737 14.5011 25.307 13.8371C27.0906 13.1099 29.1197 12.648 31.0748 12.6733C32.3535 12.6921 33.6194 12.9115 34.818 13.3219C35.3709 13.5093 35.9031 13.8132 36.5108 13.7795C37.0812 13.7444 37.461 13.3984 37.7728 12.9919C39.1263 11.2293 41.542 11.2055 43.687 11.2567C44.5791 11.2778 44.5784 10.0023 43.687 9.98128C41.6671 9.93355 39.3749 9.98128 37.7057 11.1746C37.3199 11.4554 36.984 11.7898 36.7099 12.1657C36.5398 12.3932 36.5093 12.5027 36.2234 12.4774C35.8787 12.4472 35.4151 12.1665 35.0895 12.0562C33.8633 11.6567 32.577 11.4358 31.2769 11.4013C27.3674 11.2862 23.0149 12.8305 20.3506 15.4937C18.731 17.1124 17.7382 19.1403 17.3188 21.2967C17.1663 22.099 18.4977 22.443 18.6547 21.6358Z" fill="white"/>
<path d="M71.0087 11.2253C71.3816 9.23104 72.8471 7.72957 74.8007 6.87319C76.3395 6.20072 78.4456 5.84202 80.0515 6.48922C80.8598 6.81493 81.5659 5.71708 80.75 5.38786C78.6614 4.54552 76.2267 4.87333 74.2044 5.72761C71.9169 6.69489 70.1066 8.56419 69.6727 10.8834C69.5202 11.6858 70.857 12.0311 71.0087 11.2225V11.2253Z" fill="white"/>
<path d="M59.8561 30.9836C61.5123 31.0088 63.1502 31.7922 64.0676 33.0754C64.5531 33.7665 64.837 34.5612 64.8919 35.3828C64.9468 36.2043 64.7708 37.0251 64.381 37.7658C63.9875 38.4993 65.1816 39.1458 65.5766 38.4095C66.5854 36.5325 66.529 34.2027 65.2632 32.4324C64.6679 31.6101 63.8651 30.9327 62.9235 30.4583C61.9819 29.9839 60.9294 29.7265 59.8561 29.7081C58.964 29.6948 58.964 30.9716 59.8561 30.9836Z" fill="white"/>
<path d="M48.7834 32.6652C50.9566 33.629 51.4354 36.1651 49.7266 37.7445C48.9786 38.4359 48.0941 39.0691 47.8889 40.0869C47.693 41.0605 48.062 42.0924 48.8917 42.7325C49.5711 43.2569 50.5555 42.3591 49.8715 41.8312C49.0076 41.1644 49.067 40.1739 49.8052 39.4488C50.6371 38.6318 51.4904 37.9993 51.9128 36.9057C52.7119 34.8405 51.6078 32.5072 49.4826 31.5645C48.6827 31.2135 47.9797 32.3093 48.7834 32.6652Z" fill="white"/>
<path d="M32.5308 35.3635C33.4039 35.7552 34.3174 36.1721 34.977 36.8474C35.7288 37.6196 35.5306 38.5707 35.6731 39.5204C35.8233 40.4666 36.2118 41.3673 36.8076 42.1505C37.4034 42.9337 38.19 43.5778 39.1045 44.0312C39.8914 44.4158 40.5922 43.3159 39.8038 42.9298C38.9148 42.4995 38.1767 41.8457 37.6755 41.0444C37.1418 40.1859 37.0175 39.3162 36.9733 38.344C36.9275 37.3423 36.5539 36.4789 35.7708 35.772C35.0456 35.1164 34.1306 34.6686 33.2254 34.2621C32.4278 33.9041 31.7248 35.0034 32.527 35.3635H32.5308Z" fill="white"/>
<path d="M18.6693 33.8186C15.0092 33.2739 11.0784 33.5196 8.13042 35.7995C5.65755 37.713 4.61136 40.9237 6.09371 43.6613C6.85624 45.0652 8.22879 45.8739 9.77062 46.4368C11.2362 46.9717 13.0663 47.3669 13.9523 48.6943C14.4434 49.4293 14.236 50.1839 14.1048 50.9855C13.9752 51.7446 14.0011 52.5193 14.1811 53.2696C14.5494 54.7837 15.5399 56.1617 16.7676 57.2048C17.9083 58.1688 19.2278 58.9366 20.6633 59.4714C22.151 60.0147 23.8011 60.0533 25.3803 60.0568C26.2717 60.0568 26.2732 58.7842 25.3803 58.782C24.0909 58.782 22.771 58.7638 21.5303 58.4051C20.4689 58.0976 19.4906 57.5129 18.5847 56.931C17.3593 56.1406 16.2971 55.0006 15.7633 53.702C15.5022 53.0791 15.3788 52.4145 15.4004 51.7471C15.4316 50.9651 15.7305 50.2084 15.6428 49.4208C15.4903 48.0647 14.4068 47.0342 13.1768 46.3737C11.7875 45.631 10.1465 45.3909 8.79154 44.59C6.2752 43.1019 6.29883 39.7929 7.98097 37.7699C10.3806 34.8841 14.6744 34.5135 18.2964 35.0519C19.1688 35.1818 19.5439 33.9534 18.6647 33.8228L18.6693 33.8186Z" fill="white"/>
<path d="M11.8429 34.1738C11.2054 31.366 10.7052 28.083 12.5207 25.5399C14.0267 23.434 17.0265 22.3649 19.6824 22.9286C20.5502 23.1132 20.92 21.8841 20.0507 21.6995C16.8618 21.0221 13.4373 22.2168 11.5104 24.6477C9.26628 27.4857 9.77717 31.298 10.5077 34.5122C10.6899 35.3152 12.0251 34.9755 11.8429 34.1738Z" fill="white"/>
<path d="M91.069 11.6215C92.1411 15.4865 90.1951 19.6273 86.8751 22.0539C85.1373 23.3223 82.9976 23.8263 81.0982 24.8259C79.0904 25.8824 77.6615 27.7039 77.9093 29.9115C78.1846 32.3649 80.4188 34.2068 83.0807 34.2875C83.9729 34.3149 83.9714 33.0401 83.0807 33.0128C82.5478 32.9981 82.0237 32.8838 81.5403 32.6767C81.0569 32.4696 80.6244 32.1741 80.269 31.8081C79.9137 31.4422 79.643 31.0135 79.4734 30.5482C79.3038 30.0829 79.2389 29.5907 79.2826 29.1015C79.4778 26.9655 81.5702 25.9427 83.4765 25.1755C85.3988 24.4033 87.1869 23.6158 88.7166 22.2589C90.2175 20.9204 91.3632 19.2815 92.0648 17.4695C92.8439 15.4843 92.9639 13.3306 92.4095 11.2825C92.1891 10.4879 90.8532 10.8248 91.0743 11.6215H91.069Z" fill="white"/>
<path d="M91.3389 19.3738C95.8729 17.4666 101.446 19.0355 103.997 22.9727C105.201 24.8308 105.638 26.9401 105.361 29.0797C105.071 31.3182 104.293 33.5118 103.391 35.5987C102.487 37.6836 101.419 39.7045 100.193 41.6453C99.7465 42.3564 100.943 42.9993 101.39 42.289C103.89 38.3124 106.098 33.8326 106.727 29.2397C107.384 24.4349 104.481 19.6574 99.4926 17.9453C96.6286 16.9626 93.4115 17.1079 90.6427 18.2724C89.8329 18.6129 90.536 19.7129 91.3412 19.3738H91.3389Z" fill="white"/>
<path d="M104.102 64.198C108.614 61.5425 110.941 56.3249 109.766 51.5166L109.098 52.3238C111.66 52.2838 114.164 51.3249 115.966 49.6381C117.837 47.8889 118.779 45.4707 118.972 43.0546C119.325 38.5895 116.83 33.6695 111.9 32.3442C109.341 31.6563 106.547 32.0353 104.446 33.5754C103.749 34.0864 104.735 34.9835 105.426 34.4774C106.986 33.3333 109.132 33.0553 111.043 33.4568C113.08 33.885 114.784 35.0516 115.913 36.6612C118.246 39.9891 118.291 44.926 115.595 48.103C114.044 49.9281 111.607 51.0098 109.098 51.0512C108.992 51.053 108.887 51.0769 108.793 51.121C108.698 51.1652 108.616 51.2284 108.552 51.3061C108.487 51.3837 108.443 51.4737 108.422 51.5694C108.401 51.665 108.403 51.7638 108.43 51.8584C109.466 56.094 107.376 60.762 103.404 63.0994C102.655 63.5403 103.349 64.6437 104.102 64.2008V64.198Z" fill="white"/>
<path d="M109.661 52.8961C112.141 53.4779 114.269 54.9423 115.576 56.9675C117.03 59.2137 117.345 61.9576 116.664 64.4783C116.449 65.275 117.784 65.6148 117.999 64.8174C118.769 61.9731 118.414 58.8655 116.772 56.3238C115.292 54.034 112.842 52.3114 110.03 51.6642C109.165 51.4656 108.796 52.6947 109.661 52.894V52.8961Z" fill="white"/>
<path d="M117.269 59.9313C119.139 60.7075 121.217 60.9571 123.241 60.6487C123.61 60.5933 123.816 60.1707 123.725 59.864C123.617 59.5024 123.244 59.3635 122.873 59.4189C121.211 59.6626 119.507 59.4581 117.968 58.83C117.626 58.6896 117.223 58.7394 117.02 59.0588C116.847 59.3312 116.925 59.7895 117.269 59.9313Z" fill="white"/>
<path d="M101.061 78.3409C105.644 78.4448 108.844 74.471 108.65 70.4671L107.773 71.0813C113.08 72.7836 119.284 71.4407 123.236 67.773C123.864 67.1897 122.886 66.2877 122.257 66.8717C118.63 70.2369 112.998 71.4098 108.142 69.8522C107.726 69.7188 107.246 70.0712 107.265 70.4671C107.426 73.7873 104.911 77.1532 101.061 77.0654C100.169 77.0451 100.17 78.3205 101.061 78.3409Z" fill="white"/>
<path d="M46.5809 64.7385C48.0007 66.6148 50.1572 67.9737 52.5973 68.4455C52.9625 68.5157 53.3453 68.3465 53.449 68.0004C53.5435 67.6838 53.3331 67.2872 52.9648 67.2163C50.8861 66.8141 48.9951 65.705 47.7796 64.0948C47.5661 63.814 47.1696 63.6827 46.8325 63.8659C46.5275 64.0295 46.3689 64.4542 46.584 64.7385H46.5809Z" fill="white"/>
<path d="M49.5247 66.8383C47.5956 68.266 46.7797 70.7994 47.485 72.9733C47.7404 73.7574 49.0771 73.4233 48.8209 72.6343C48.2475 70.8731 48.9185 68.9139 50.5046 67.7403C50.7959 67.5241 50.7486 67.0636 50.5046 66.8383C50.2164 66.5729 49.8183 66.6221 49.5247 66.8383Z" fill="white"/>
<path d="M37.9565 59.2423C37.6146 60.0698 37.4805 60.9576 37.5643 61.8395C37.5696 62.0075 37.6418 62.1679 37.7672 62.2901C37.898 62.4085 38.0737 62.4754 38.2571 62.4769C38.6051 62.4628 38.9851 62.1961 38.9508 61.8395C38.9298 61.6295 38.9219 61.4186 38.9271 61.2077C38.9271 61.1179 38.9348 61.028 38.9424 60.9382C38.947 60.8785 38.9531 60.8189 38.9599 60.7592C38.9653 60.7136 39.005 60.5837 38.9599 60.7501C39.0111 60.562 39.0317 60.3661 39.0843 60.1766C39.1412 59.9735 39.2107 59.7735 39.2927 59.5778C39.4224 59.2654 39.1492 58.8646 38.8089 58.7937C38.4128 58.7102 38.0954 58.9046 37.9565 59.2388V59.2423Z" fill="white"/>
<path d="M5.59366 45.3405C1.55608 48.7541 3.7552 54.4989 6.65738 57.8689C9.42612 61.0839 13.7214 63.4845 18.2631 63.5028C21.1469 63.5147 23.8043 62.4892 26.0546 60.8747C26.7568 60.3707 25.7701 59.4708 25.0747 59.9734C23.3064 61.2418 21.1774 62.0954 18.9242 62.2119C16.9157 62.3158 14.9095 61.8841 13.1084 61.0705C9.53745 59.456 6.56741 56.5078 5.30237 53.0142C4.47046 50.7175 4.51544 47.9855 6.57427 46.2432C7.23157 45.6873 6.25019 44.7874 5.59442 45.3419L5.59366 45.3405Z" fill="white"/>
<path d="M5.53074 45.8273C2.82453 43.2476 1.29337 39.7098 1.38183 36.1186C1.46723 32.6306 3.11658 29.2058 5.83651 26.7827C6.5083 26.1846 7.26549 25.6483 7.76266 24.9057C8.30786 24.0914 8.36277 23.1311 8.57627 22.2186C8.96811 20.5515 9.67255 18.96 10.658 17.5155C12.7008 14.5167 15.8693 12.3134 19.5612 11.3243C21.4797 10.8108 23.4856 10.632 25.4754 10.7972C26.4987 10.8835 27.5342 11.1278 28.5255 10.7375C29.378 10.4006 29.9438 9.71686 30.5759 9.12301C33.0046 6.83746 36.4177 5.49252 39.8734 5.31563C41.6228 5.21866 43.3761 5.43072 45.0388 5.94036C46.0187 6.24431 46.9367 6.57212 47.9486 6.17762C48.7714 5.85753 49.3791 5.22648 50.0517 4.70704C52.5756 2.75491 55.8324 1.61846 59.1006 1.34821C62.4206 1.06743 65.8413 1.60793 68.8014 3.04412C69.5424 3.4019 70.2508 3.81411 70.9197 4.27674C71.606 4.75407 72.226 5.39986 73.0693 5.64274C73.9424 5.89614 74.7827 5.53955 75.6367 5.39986C76.3567 5.27836 77.0899 5.23711 77.8206 5.27702C78.3475 5.30791 79.1283 5.38582 79.4639 5.82173C79.9748 6.48578 81.1757 5.84981 80.6595 5.17804C79.7536 3.99947 77.9861 3.91454 76.5533 4.01702C75.6947 4.0802 74.9055 4.29008 74.0659 4.43257C73.1425 4.58841 72.4173 3.73554 71.7486 3.26593C68.9585 1.30749 65.5089 0.247548 62.0241 0.036963C58.5638 -0.170112 55.0203 0.493933 51.9587 2.00242C51.1975 2.3765 50.47 2.80606 49.7832 3.28699C49.0756 3.77836 48.4572 4.43679 47.7038 4.86708C46.7766 5.39565 45.7746 4.79689 44.8405 4.5484C43.9646 4.32032 43.068 4.16573 42.1618 4.08651C38.4815 3.76632 34.7958 4.64387 31.7457 6.5665C30.9743 7.05483 30.255 7.60953 29.5976 8.2231C28.9213 8.85907 28.3501 9.66702 27.2917 9.69088C26.2334 9.71475 25.1872 9.47187 24.1318 9.46486C23.1065 9.46168 22.0829 9.54107 21.0726 9.70212C17.1219 10.3156 13.4374 12.2383 10.8791 15.0762C9.63877 16.4508 8.6512 18.003 7.95557 19.6712C7.61276 20.4905 7.34943 21.3362 7.16865 22.1982C6.96124 23.1957 6.85296 24.0788 6.05612 24.839C5.37442 25.489 4.61494 26.0554 3.96985 26.7398C3.32531 27.422 2.7488 28.1561 2.2473 28.9334C0.706016 31.3139 -0.0713655 34.0474 0.00515045 36.8177C0.0816664 39.588 1.00895 42.2817 2.67965 44.5869C3.2322 45.35 3.85849 46.0657 4.55089 46.7251C5.17159 47.3161 6.1522 46.4141 5.53074 45.8231V45.8273Z" fill="white"/>
<path d="M23.2668 23.0343C26.177 23.1567 28.9711 24.121 31.2512 25.7902C31.5425 26.0057 31.9459 26.0527 32.2303 25.7902C32.4728 25.5677 32.5239 25.1051 32.2303 24.8889C29.6797 22.9953 26.54 21.8992 23.2668 21.7596C22.3754 21.7224 22.3777 22.9971 23.2668 23.0343Z" fill="white"/>
<path d="M26.3239 19.0488C26.0447 20.37 26.2317 21.7388 26.8577 22.9552C27.0102 23.2584 27.5104 23.3588 27.8055 23.184C28.1441 22.9832 28.2188 22.6358 28.0541 22.3122C28.0434 22.2918 27.9413 22.0735 27.9916 22.1879C27.9664 22.1325 27.9428 22.0756 27.9199 22.0195C27.8691 21.8875 27.8218 21.7537 27.7781 21.618C27.7369 21.4825 27.7018 21.3456 27.6706 21.2073C27.6568 21.1483 27.6454 21.0887 27.6347 21.029C27.6271 20.9897 27.6202 20.9497 27.6141 20.9104C27.6225 20.97 27.6233 20.9764 27.6141 20.93C27.5826 20.6601 27.5694 20.3886 27.5745 20.1172C27.5791 19.9768 27.5913 19.8364 27.605 19.696C27.6248 19.5002 27.5806 19.821 27.6141 19.6258C27.6279 19.5465 27.6431 19.4672 27.6591 19.3879C27.7278 19.0614 27.56 18.6859 27.1757 18.6038C26.8333 18.5336 26.3971 18.6985 26.3239 19.0488Z" fill="white"/>
<path d="M115.318 50.1863C117.273 49.9968 119.251 50.5674 120.693 51.8078C121.343 52.3693 122.325 51.468 121.672 50.9065C119.981 49.452 117.63 48.6876 115.318 48.9115C114.947 48.9473 114.626 49.179 114.626 49.5489C114.626 49.8655 114.945 50.2228 115.318 50.1863Z" fill="white"/>
<path d="M120.425 50.9095C121.363 49.9028 122.401 48.9793 123.526 48.1508C123.811 47.9402 123.781 47.4643 123.526 47.2488C123.221 46.994 122.85 47.0256 122.547 47.2488C121.422 48.0779 120.384 49.0017 119.445 50.0082C119.209 50.2609 119.155 50.6645 119.445 50.9095C119.704 51.1285 120.173 51.1797 120.425 50.9095Z" fill="white"/>
<path d="M51.1312 4.2235C54.2156 3.24077 57.5166 4.09644 60.1824 5.666C60.9358 6.10964 61.6312 5.00617 60.8817 4.56535C57.9269 2.82521 54.1714 1.90566 50.7629 2.99368C49.9241 3.26112 50.2856 4.49305 51.1312 4.2235Z" fill="white"/>
<path d="M82.7751 29.3317C82.5295 31.2235 82.9001 33.1335 83.7663 34.8575C83.9242 35.1691 84.413 35.2477 84.7142 35.0856C85.0619 34.8982 85.1206 34.524 84.9627 34.2138C84.1956 32.6912 83.9425 30.9925 84.1583 29.3317C84.2025 28.9892 83.8075 28.6943 83.4651 28.6943C83.0541 28.6943 82.817 28.9885 82.7728 29.3317H82.7751Z" fill="white"/>
<path d="M80.5789 6.33922C84.6302 4.01506 90.3553 6.96536 91.0149 11.137C91.143 11.9464 92.4782 11.6024 92.3508 10.798C91.5624 5.81065 84.6257 2.51499 79.8797 5.23856C79.1248 5.67166 79.8194 6.77513 80.5789 6.33922Z" fill="white"/>
<path d="M91.8623 11.7759C94.9522 10.9817 98.254 11.2929 101.105 12.647C103.919 13.9933 106.049 16.335 107.063 19.0972C107.633 20.6449 107.844 22.2852 107.684 23.9126C107.64 24.3696 108.16 24.5823 108.561 24.5275C112.092 24.0432 115.714 25.8844 117.581 28.6065C119.727 31.7358 119.663 35.7327 118.201 39.0867C118.096 39.3274 118.267 39.6952 118.52 39.8069C121.637 41.1855 123.35 44.6222 122.389 47.6933C122.274 48.0576 122.604 48.544 123.057 48.4998C125.904 48.2232 126.159 52.0096 126.278 53.789C126.415 55.8541 126.006 58.61 123.554 59.425C122.979 59.6159 122.884 60.2673 123.389 60.5902C124.659 61.3932 125.372 62.9214 125.047 64.3211C124.725 65.7004 123.529 66.7821 122.057 67.1239C121.66 67.2166 121.371 67.729 121.644 68.0603C123.538 70.3999 120.893 73.0393 119.027 74.5183C116.873 76.2205 113.986 77.6377 111.078 76.9751C110.213 76.7786 109.843 78.0077 110.71 78.2049C114.198 78.9974 117.584 77.3738 120.151 75.3031C121.406 74.2901 122.61 73.1214 123.247 71.6789C123.852 70.3094 123.824 68.6352 122.839 67.4195L122.425 68.3531C124.393 67.8954 126.047 66.3708 126.414 64.512C126.799 62.5634 125.845 60.6007 124.088 59.4881L123.923 60.6534C127.092 59.6004 127.869 56.3595 127.649 53.5861C127.53 52.1071 127.401 50.4779 126.612 49.1533C125.918 47.9874 124.547 47.0798 123.057 47.2244L123.725 48.0309C124.845 44.451 122.88 40.3242 119.218 38.7048C119.325 38.9449 119.431 39.1849 119.537 39.425C120.822 36.4768 121.066 33.0372 119.863 30.028C119.314 28.6364 118.454 27.3667 117.337 26.3014C116.22 25.2361 114.873 24.399 113.382 23.8445C111.737 23.2389 109.947 23.0498 108.196 23.297L109.073 23.9119C109.382 20.7293 108.318 17.4834 106.205 14.955C104.06 12.388 100.861 10.6928 97.3838 10.219C95.4188 9.94325 93.4127 10.0545 91.4978 10.5454C90.6408 10.7679 91.0053 11.9984 91.8662 11.7752L91.8623 11.7759Z" fill="white"/>
</svg>
