<svg width="72" height="74" viewBox="0 0 72 74" fill="none" xmlns="http://www.w3.org/2000/svg">
<path d="M20.1205 45.3541C20.1991 45.4747 20.2269 45.6178 20.1988 45.7561C20.1706 45.8944 20.0883 46.0183 19.9676 46.1043L9.6945 52.682C9.57045 52.757 9.42144 52.7885 9.27441 52.7709C9.11566 52.7459 8.97361 52.6649 8.87825 52.5451C8.79963 52.4245 8.77176 52.2814 8.79996 52.1431C8.82815 52.0048 8.91043 51.8809 9.03114 51.795L19.3042 45.2173C19.4346 45.1431 19.5901 45.1161 19.7407 45.1413C19.8914 45.1666 20.0266 45.2424 20.1205 45.3541Z" fill="white"/>
<path d="M16.0125 31.8881C16.007 31.9586 15.9864 32.0275 15.9518 32.0906C15.9172 32.1537 15.8694 32.2098 15.8111 32.2556C15.7528 32.3015 15.6852 32.3362 15.6123 32.3577C15.5393 32.3792 15.4625 32.3872 15.3862 32.381L1.4258 31.2917C1.38314 31.2885 1.34109 31.2804 1.30066 31.2674C1.17663 31.226 1.07012 31.1491 0.99655 31.048C0.922982 30.9469 0.88619 30.8268 0.891496 30.7051C0.89709 30.6333 0.918184 30.5633 0.953547 30.4991C0.988909 30.435 1.03782 30.3781 1.09739 30.3317C1.15696 30.2853 1.226 30.2504 1.30041 30.229C1.37482 30.2076 1.45311 30.2002 1.53066 30.2073L15.4829 31.3053C15.6367 31.318 15.7788 31.3864 15.8781 31.4957C15.9773 31.6049 16.0257 31.746 16.0125 31.8881Z" fill="white"/>
<path d="M21.8449 17.1242C21.7018 17.1059 21.5712 17.0393 21.4782 16.9371L15.3788 10.1784C15.2792 10.0686 15.2309 9.92668 15.2445 9.78395C15.2582 9.64122 15.3327 9.50935 15.4516 9.41734C15.5705 9.32533 15.7241 9.28073 15.8787 9.29334C16.0332 9.30595 16.176 9.37473 16.2756 9.48457L22.3966 16.2378C22.4469 16.2918 22.485 16.3545 22.5086 16.4223C22.5322 16.4901 22.5408 16.5616 22.534 16.6325C22.5272 16.7034 22.5052 16.7724 22.469 16.8353C22.4329 16.8983 22.3836 16.9539 22.3238 16.9989C22.2594 17.0518 22.1829 17.0905 22.0999 17.1122C22.017 17.1339 21.9298 17.138 21.8449 17.1242Z" fill="white"/>
<path d="M40.6069 13.0567C40.5309 13.0464 40.4578 13.0223 40.3919 12.9859C40.326 12.9494 40.2685 12.9013 40.2227 12.8443C40.177 12.7872 40.1439 12.7224 40.1253 12.6536C40.1067 12.5847 40.1031 12.5131 40.1145 12.4429L41.9012 1.35486C41.9122 1.28507 41.938 1.21798 41.9772 1.15748C42.0164 1.09697 42.0683 1.04424 42.1297 1.00235C42.1911 0.960462 42.2609 0.930238 42.3351 0.913427C42.4092 0.896617 42.4863 0.893555 42.5617 0.904418C42.6377 0.914724 42.7108 0.938797 42.7767 0.975251C42.8427 1.0117 42.9001 1.05981 42.9459 1.11683C42.9916 1.17386 43.0248 1.23867 43.0433 1.30754C43.0619 1.37641 43.0655 1.44799 43.0541 1.51816L41.2527 12.5869C41.2339 12.728 41.1555 12.8566 41.0346 12.9446C40.9136 13.0326 40.7599 13.0729 40.6069 13.0567Z" fill="white"/>
<path d="M58.1947 22.0089C58.0831 22.0647 57.9546 22.0847 57.8293 22.0656C57.7397 22.0554 57.6542 22.0252 57.5799 21.9778C57.5057 21.9303 57.4451 21.8669 57.4031 21.7931C57.3654 21.7316 57.3413 21.6638 57.3322 21.5937C57.3231 21.5235 57.3292 21.4524 57.3501 21.3844C57.3711 21.3164 57.4064 21.253 57.4541 21.1977C57.5018 21.1425 57.5609 21.0965 57.628 21.0626L69.7782 14.8481C69.8455 14.8085 69.9209 14.7821 69.9997 14.7705C70.0784 14.7588 70.159 14.7622 70.2363 14.7805C70.3136 14.7987 70.386 14.8314 70.4491 14.8765C70.5122 14.9216 70.5646 14.9782 70.603 15.0427C70.6415 15.1073 70.6653 15.1784 70.6728 15.2518C70.6804 15.3251 70.6716 15.3991 70.647 15.4692C70.6223 15.5393 70.5824 15.604 70.5296 15.6592C70.4769 15.7145 70.4124 15.7592 70.3403 15.7906L58.1947 22.0089Z" fill="white"/>
<path d="M70.7351 39.8486L58.7431 38.2017C58.6614 38.1982 58.5814 38.179 58.5083 38.1452C58.4352 38.1114 58.3706 38.0638 58.3187 38.0054C58.2667 37.9471 58.2287 37.8794 58.2069 37.8066C58.1852 37.7338 58.1802 37.6576 58.1924 37.5829C58.2045 37.5082 58.2335 37.4368 58.2775 37.3731C58.3215 37.3095 58.3795 37.2551 58.4477 37.2134C58.5159 37.1718 58.5928 37.1438 58.6734 37.1314C58.7541 37.119 58.8367 37.1223 58.9158 37.1412L70.9078 38.7882C70.9895 38.7916 71.0695 38.8109 71.1426 38.8447C71.2157 38.8785 71.2803 38.9261 71.3322 38.9844C71.3841 39.0428 71.4222 39.1105 71.444 39.1833C71.4657 39.2561 71.4707 39.3323 71.4585 39.4069C71.4463 39.4816 71.4173 39.5531 71.3733 39.6167C71.3294 39.6804 71.2714 39.7348 71.2032 39.7765C71.135 39.8181 71.0581 39.846 70.9774 39.8585C70.8968 39.8709 70.8142 39.8676 70.7351 39.8486Z" fill="white"/>
<path d="M58.3575 59.3164C58.2286 59.4083 58.0659 59.4498 57.9042 59.4319C57.76 59.4106 57.6285 59.3431 57.5328 59.2411L50.0044 50.8087C49.9495 50.7551 49.907 50.6916 49.8797 50.6222C49.8524 50.5528 49.8408 50.479 49.8457 50.4053C49.8505 50.3316 49.8717 50.2596 49.9079 50.1938C49.9442 50.128 49.9946 50.0697 50.0562 50.0227C50.1178 49.9756 50.1892 49.9407 50.266 49.9202C50.3428 49.8997 50.4233 49.8939 50.5026 49.9033C50.5819 49.9127 50.6583 49.9371 50.7269 49.9749C50.7956 50.0126 50.8552 50.063 50.9019 50.1229L58.439 58.5548C58.5294 58.6687 58.571 58.8095 58.5559 58.95C58.5409 59.0906 58.4702 59.221 58.3575 59.3164Z" fill="white"/>
<path d="M29.9913 29.7868C29.9291 29.6895 29.8418 29.6082 29.7374 29.5499C29.6329 29.4917 29.5146 29.4584 29.3929 29.4532H29.3151C29.186 29.4528 29.0597 29.4887 28.9529 29.5562C28.8461 29.6236 28.7638 29.7196 28.7167 29.8313C28.5938 30.0807 28.5526 30.3582 28.5983 30.6292C28.6441 30.9001 28.7748 31.1526 28.974 31.355C29.2732 31.6216 29.6725 31.7692 30.0871 31.7665C30.2799 31.1136 30.2464 30.4209 29.9913 29.7868ZM35.7719 42.8824C35.6219 42.6082 35.4143 42.3646 35.1615 42.166C34.9087 41.9673 34.6158 41.8177 34.2998 41.7258C34.2163 41.7176 34.132 41.7176 34.0485 41.7258C33.879 41.715 33.7095 41.7476 33.5586 41.8202C33.4077 41.8928 33.2812 42.0025 33.1928 42.1373C33.0905 42.3008 33.0402 42.4878 33.0476 42.6768C33.055 42.8657 33.1199 43.0489 33.2347 43.205C33.4254 43.387 33.6711 43.511 33.9392 43.5606C34.2074 43.6102 34.4854 43.5832 34.7366 43.483C35.1327 43.3712 35.4899 43.164 35.7719 42.8824ZM36.5558 26.9119C36.5558 26.8507 36.478 26.6839 36.1608 26.6839C36.0578 26.6853 35.9553 26.6984 35.8557 26.7228C35.6402 26.7673 35.6642 27.0899 35.724 27.3512C35.8109 27.7106 35.9561 28.0557 36.1549 28.3744C36.3246 28.1685 36.4477 27.9327 36.5166 27.6813C36.5855 27.43 36.5988 27.1682 36.5558 26.9119ZM38.0817 54.9882C37.8424 54.9104 37.579 54.8325 37.2978 54.7547C33.5279 53.7315 30.0751 54.5489 29.4767 55.1106C29.7041 55.244 30.482 55.5443 32.8457 55.5666C34.6132 55.6377 36.3814 55.4425 38.0817 54.9882ZM38.5126 62.5564C37.0765 61.9823 35.528 61.6907 33.9647 61.7001C31.4813 61.6556 30.494 62.1005 30.2726 62.2562C30.5059 62.473 31.6489 63.0291 34.8623 63.1459C36.1124 63.2255 37.3647 63.0232 38.5126 62.5564ZM22.9062 40.9139C21.0093 37.8444 19.0406 34.6747 20.004 28.9082C21.5957 19.3493 29.4169 16.035 36.2446 16.1185C38.5893 16.1653 40.8999 16.6498 43.0392 17.543C45.1784 18.4361 47.1026 19.7198 48.6974 21.3178C50.0373 22.735 51.0363 24.4017 51.6276 26.2065C52.2189 28.0112 52.3889 29.9125 52.1262 31.7831C51.5697 36.7878 48.9906 40.3579 46.9201 43.2495C45.4839 45.2513 44.2393 46.9807 44.0358 48.6378C43.7306 51.1013 43.0125 53.459 40.6488 54.9549C42.0012 55.7946 42.1867 56.6231 42.1209 57.1792C42.0647 57.5065 41.9335 57.8189 41.7364 58.0951C41.5392 58.3714 41.2806 58.6052 40.978 58.7807C41.3824 59.254 41.5943 59.8447 41.5764 60.4489C41.5055 61.2354 41.1214 61.9691 40.4993 62.5064C40.9296 62.8449 41.2507 63.2876 41.4268 63.7854C41.5404 64.1185 41.5328 64.477 41.4051 64.8057C41.2775 65.1344 41.037 65.4148 40.7207 65.6038C40.1122 65.9403 39.4397 66.1649 38.74 66.2655C37.0106 66.6325 35.3769 66.9717 35.365 70.4305C35.365 73.2109 35.3111 73.2734 35.1974 73.5635H34.0784C34.1921 73.0343 34.24 72.8828 34.246 70.336C34.2938 66.1543 36.7174 65.6371 38.4886 65.2645C39.045 65.1866 39.582 65.0172 40.0744 64.7641C40.1949 64.7 40.2877 64.5989 40.3369 64.4781C40.386 64.3574 40.3884 64.2245 40.3437 64.1023C40.1947 63.7465 39.9367 63.4391 39.6016 63.2182C38.1538 64.0013 36.4852 64.3598 34.8144 64.2469C32.6662 64.1691 29.0698 63.8076 29.1177 62.2895C29.1177 61.2441 30.9667 60.6491 33.9827 60.6992C35.9313 60.6718 37.8558 61.1021 39.5777 61.9503C39.823 61.767 40.0269 61.5405 40.1779 61.2838C40.3288 61.0271 40.4238 60.7453 40.4574 60.4545C40.4702 60.0424 40.3066 59.6425 40.0026 59.3423C38.3159 59.9719 36.5235 60.322 34.7067 60.3766C32.9115 60.4879 29.7879 60.499 29.0399 59.3701C28.9384 59.2202 28.8845 59.0467 28.8845 58.8697C28.8845 58.6926 28.9384 58.5191 29.0399 58.3692C29.6981 57.346 32.4328 56.8066 36.0053 56.9957C37.4632 57.009 38.8892 57.3937 40.1282 58.1078C40.6668 57.7964 40.966 57.4628 41.0019 57.1458C41.0378 56.8288 40.6489 56.1894 39.5179 55.6277C37.9261 56.3173 35.7719 56.7399 32.8277 56.6787C29.2972 56.6398 28.5911 56.0225 28.3697 55.5666C28.2936 55.3983 28.2729 55.213 28.3102 55.0338C28.3475 54.8547 28.441 54.6898 28.5791 54.5601C29.5485 53.5258 33.5458 52.725 37.609 53.826C38.2653 53.9995 38.9073 54.2169 39.5298 54.4767C41.7798 53.2867 42.5877 51.2514 42.9168 48.5989C43.1502 46.6971 44.4607 44.8676 45.9806 42.7546C48.087 39.8185 50.4746 36.4876 51.0072 31.7609C51.2521 30.0342 51.0975 28.2788 50.5537 26.6121C50.0098 24.9454 49.0893 23.4058 47.8536 22.0963C46.3709 20.5916 44.5772 19.3799 42.5796 18.5335C40.582 17.687 38.4214 17.2231 36.2267 17.1694C33.1748 17.125 22.978 17.8645 21.111 29.0695C20.2074 34.469 21.9907 37.3495 23.8816 40.3968C25.0366 42.2652 26.2393 44.2004 26.8078 46.7528C27.3763 49.3051 28.4474 50.8288 30.0153 51.4182C31.5831 52.0077 33.7672 51.5739 35.9574 50.1949C37.2918 49.3607 37.2978 47.142 36.9029 45.496C36.7596 44.9239 36.5593 44.3654 36.3045 43.8278C35.9326 44.1346 35.4906 44.3589 35.0119 44.4839C33.863 44.7509 32.8816 44.4839 32.3311 43.8167C32.0789 43.4972 31.9341 43.1155 31.915 42.7196C31.8958 42.3238 32.0031 41.9316 32.2234 41.5923C32.4539 41.2494 32.792 40.9802 33.1922 40.8212C33.5923 40.6621 34.0352 40.6207 34.4614 40.7026C34.8825 40.7927 35.2802 40.9594 35.6315 41.1933C35.9828 41.4272 36.2807 41.7234 36.5079 42.065C38.0697 39.963 39.3264 36.0149 40.2419 33.1678C40.3377 32.8619 40.4334 32.5728 40.5172 32.3003C39.661 32.2321 38.8286 32.0039 38.0697 31.6293C37.3108 31.2547 36.6412 30.7415 36.101 30.1205C35.117 31.0247 33.9603 31.7508 32.6901 32.2614C32.1506 32.4902 31.5843 32.66 31.0026 32.7674C30.843 33.3224 30.6431 33.8668 30.4042 34.3967C30.382 34.4669 30.3441 34.532 30.2931 34.5877C30.2421 34.6435 30.179 34.6886 30.108 34.7203C30.037 34.752 29.9597 34.7694 29.8809 34.7715C29.8022 34.7737 29.7239 34.7604 29.6511 34.7326C29.5782 34.7048 29.5125 34.6631 29.458 34.6102C29.4036 34.5573 29.3618 34.4944 29.3352 34.4255C29.3086 34.3567 29.2978 34.2834 29.3037 34.2104C29.3095 34.1374 29.3317 34.0664 29.369 34.0019C29.5352 33.6145 29.679 33.2191 29.7998 32.8174C29.3802 32.7914 28.974 32.6696 28.6172 32.4627C28.2604 32.2558 27.9641 31.9702 27.7545 31.6313C27.545 31.2925 27.4287 30.9108 27.4159 30.5202C27.4032 30.1296 27.4944 29.742 27.6815 29.392C27.8317 29.0761 28.0874 28.8136 28.4107 28.6433C28.7341 28.473 29.1079 28.4041 29.4767 28.4467C29.7721 28.4685 30.0576 28.5556 30.3095 28.7007C30.5614 28.8458 30.7723 29.0447 30.9248 29.2808C31.292 30.0192 31.3948 30.8475 31.218 31.6441C31.5561 31.5572 31.8863 31.4457 32.2054 31.3105C33.4032 30.8377 34.4875 30.1476 35.3949 29.2808C35.0254 28.7722 34.754 28.2077 34.593 27.6126C34.3417 26.4559 34.9341 25.8943 35.5744 25.7553C36.7413 25.5106 37.3696 26.0444 37.591 26.6283C37.8543 27.3623 37.591 28.3466 36.8071 29.3475C37.7646 30.4263 39.2007 31.3605 40.8403 31.2771C41.349 29.759 41.6961 29.0028 42.1269 28.7247C42.3948 28.5384 42.7171 28.4318 43.0514 28.4189C43.3857 28.406 43.7163 28.4874 43.9999 28.6524C44.2641 28.8215 44.4679 29.06 44.5851 29.3374C44.7024 29.6149 44.7278 29.9185 44.6581 30.2094C44.5564 30.6654 44.0597 31.7609 41.702 32.2169C41.5644 32.6339 41.4268 33.0677 41.2891 33.4903C40.206 36.8935 38.9255 40.9139 37.1003 43.0604C37.4787 43.768 37.766 44.5146 37.956 45.2847C38.4587 47.3477 38.351 49.9502 36.5498 51.079C34.0066 52.6805 31.5172 53.1476 29.5545 52.408C27.5917 51.6685 26.3171 49.8556 25.6768 46.9863C25.1742 44.5785 24.0253 42.7156 22.9062 40.9139ZM42.1269 30.9768C43.0843 30.6932 43.5152 30.2706 43.593 29.9314C43.6166 29.8436 43.6116 29.7512 43.5786 29.666C43.5456 29.5809 43.486 29.5068 43.4075 29.4532C43.3409 29.4097 43.2615 29.3864 43.1801 29.3865C43.0388 29.3931 42.9031 29.4396 42.7911 29.5199C42.492 29.9717 42.2681 30.4629 42.1269 30.9768ZM38.8896 58.5583C37.9545 58.1981 36.9571 57.9984 35.9454 57.9688C32.0618 57.7631 30.3085 58.4748 30.0332 58.7974C30.2606 58.992 31.4215 59.4647 34.6349 59.27C36.0799 59.2139 37.5106 58.9801 38.8896 58.5749V58.5583Z" fill="white"/>
</svg>
